<svg width="512" height="512" viewBox="0 0 512 512" fill="none" xmlns="http://www.w3.org/2000/svg">
  <rect width="512" height="512" rx="120" fill="#007AFF"/>
  <path d="M256 96C163.2 96 88 171.2 88 264C88 356.8 163.2 432 256 432C348.8 432 424 356.8 424 264C424 171.2 348.8 96 256 96Z" fill="white"/>
  <path d="M256 144C272.569 144 286 157.431 286 174C286 190.569 272.569 204 256 204C239.431 204 226 190.569 226 174C226 157.431 239.431 144 256 144Z" fill="#007AFF"/>
  <rect x="236" y="218" width="40" height="146" rx="20" fill="#007AFF"/>
  <path d="M176 264C176 245.222 191.222 230 210 230H302C320.778 230 336 245.222 336 264C336 282.778 320.778 298 302 298H210C191.222 298 176 282.778 176 264Z" fill="#007AFF"/>
</svg>
